<?xml version="1.0" encoding="UTF-8"?>
<!DOCTYPE svg  PUBLIC '-//W3C//DTD SVG 1.1//EN'  'http://www.w3.org/Graphics/SVG/1.1/DTD/svg11.dtd'>
<svg width="102" height="16" viewBox="0 0 102 16" fill="none" xmlns="http://www.w3.org/2000/svg">
<path d="M42.6999 14.513C39.5599 14.513 37.4883 10.7318 37.4883 7.22084C37.4883 3.47856 39.4253 0.962085 42.3481 0.962085C45.6856 0.962085 47.6443 4.79949 47.6443 8.25424C47.6443 11.9965 45.7073 14.513 42.6955 14.513H42.6999ZM42.5674 0.13623C38.4134 0.13623 35.0454 3.53909 35.0454 7.73753C35.0454 11.936 38.4134 15.3388 42.5674 15.3388C46.7214 15.3388 50.0872 11.936 50.0872 7.73753C50.0872 3.53909 46.7193 0.13623 42.5674 0.13623Z" fill="black"/>
<path d="M4.79245 8.60876C5.75224 6.06202 6.98564 2.79536 6.98564 2.79536C6.98564 2.79536 8.24726 5.8869 9.35254 8.60876H4.79245ZM15.3046 14.3314C14.7856 14.3314 14.2188 14.3314 13.8909 13.899C13.6347 13.5509 13.2503 12.6321 12.929 11.7868C12.6076 10.9415 8.19298 0 8.19298 0L6.94438 0.648575L2.85549 10.8874C2.6948 11.2982 2.39514 12.0743 2.12805 12.6602C1.58518 13.8557 1.31157 14.2016 0.0716591 14.3443H0V15.034C0 15.034 1.34197 14.9907 2.59057 14.9907C3.83917 14.9907 5.12034 15.0318 5.12034 15.0318V14.3357H4.41244C3.761 14.3032 3.20727 14.2514 3.20727 13.5206C3.20727 13.2569 3.26373 12.7791 3.68716 11.5641C3.71974 11.4711 4.01506 10.6885 4.41461 9.61838H9.77164C10.3536 11.0539 10.8313 12.2386 10.9551 12.5629C11.157 13.0861 11.3264 13.5228 11.3264 13.7347C11.3264 14.193 10.9855 14.3357 10.2711 14.3357H9.81941V15.034C9.81941 15.034 11.7542 14.9907 12.929 14.9907C14.1037 14.9907 15.3958 15.0318 15.3958 15.0318V14.3357L15.3046 14.3314Z" fill="black"/>
<path d="M66.2497 11.6809C65.6112 13.6655 64.7948 14.2082 62.4431 14.2082C59.5333 14.2082 59.2445 13.6028 59.2445 12.1176V2.55111C59.2445 1.17613 59.9654 1.16315 61.0555 1.14153H61.1337V0.443237H60.821C58.9036 0.482152 57.2142 0.47999 55.3054 0.443237H55.1621V1.13938H55.2403C56.326 1.16099 57.0513 1.17396 57.0513 2.54894V13.0256C57.0638 13.2004 57.0395 13.3758 56.9801 13.5407C56.9206 13.7056 56.8273 13.8563 56.706 13.9833C56.4129 14.2579 55.9352 14.3703 55.2468 14.3292H55.1621V15.0319H55.2425C57.0687 14.9908 58.934 14.9908 60.7406 14.9908C62.5473 14.9908 64.2476 14.9908 66.013 15.0319H66.0759L66.8794 11.7263L66.2714 11.616L66.2497 11.6809Z" fill="black"/>
<path d="M82.4206 11.6809C81.7843 13.6655 80.9657 14.2082 78.6161 14.2082C75.7064 14.2082 75.4154 13.6028 75.4154 12.1176V2.55111C75.4154 1.17613 76.1363 1.16315 77.2264 1.14153H77.3046V0.443237H76.994C75.0766 0.482152 73.3872 0.47999 71.4785 0.443237H71.333V1.13938H71.4112C72.4969 1.16099 73.2222 1.17396 73.2222 2.54894V13.0256C73.2349 13.2002 73.211 13.3755 73.152 13.5404C73.0929 13.7053 73 13.8562 72.8791 13.9833C72.5859 14.2579 72.1082 14.3703 71.4177 14.3292H71.333V15.0319H71.4155C73.2417 14.9908 75.107 14.9908 76.9137 14.9908C78.7204 14.9908 80.4206 14.9908 82.1839 15.0319H82.249L83.0503 11.7263L82.4423 11.616L82.4206 11.6809Z" fill="black"/>
<path d="M94.2423 14.513C91.1002 14.513 89.0308 10.7318 89.0308 7.22084C89.0308 3.47856 90.9678 0.962085 93.8906 0.962085C97.2281 0.962085 99.1868 4.79949 99.1868 8.25424C99.1868 11.9965 97.2498 14.513 94.2402 14.513H94.2423ZM94.1099 0.13623C89.9559 0.13623 86.5879 3.53909 86.5879 7.73753C86.5879 11.936 89.9559 15.3388 94.1099 15.3388C98.2639 15.3388 101.625 11.936 101.625 7.73753C101.625 3.53909 98.2574 0.13623 94.1055 0.13623" fill="black"/>
<path d="M23.7794 12.9779C23.7794 13.54 23.9227 14.3377 25.3949 14.3377C25.7141 14.3377 25.8292 14.3377 25.8292 14.3377V15.0231C24.5763 14.9798 23.408 14.9582 22.5286 14.9582C21.6035 14.9582 20.7675 14.9798 19.799 15.0231V14.3312H20.1378C20.8435 14.3312 21.5818 14.128 21.5818 12.9714V2.69148C21.5818 1.69483 21.3799 1.34676 20.5808 1.19759C20.309 1.14551 20.0315 1.13024 19.7556 1.15219V0.456055C19.7556 0.456055 22.3288 0.492804 24.155 0.492804C26.3439 0.492804 28.2265 0.693868 29.2602 1.32947C29.8135 1.67947 30.2664 2.16601 30.575 2.74182C30.8836 3.31764 31.0373 3.96313 31.0212 4.61558C31.0212 6.63049 29.3818 7.72874 28.435 8.18923C27.479 8.61668 26.4429 8.83772 25.3949 8.83781L25.358 8.24328C27.7336 7.8109 28.5957 6.5332 28.5957 4.62855C28.5957 2.50339 27.2146 1.42459 25.4514 1.28407C24.2875 1.1911 23.7794 1.33163 23.7794 1.33163V12.9779Z" fill="black"/>
</svg>
