<?xml version="1.0" encoding="UTF-8"?>
<!DOCTYPE svg  PUBLIC '-//W3C//DTD SVG 1.1//EN'  'http://www.w3.org/Graphics/SVG/1.1/DTD/svg11.dtd'>
<svg width="148" height="48" viewBox="0 0 148 48" fill="none" xmlns="http://www.w3.org/2000/svg">
<path d="M10.6098 32.722C10.8617 36.2956 13.4759 39.1277 18.0235 39.1277C21.6724 39.1277 23.3403 38.0738 24.4227 36.2579H35.087C33.1332 42.0869 28.2929 47.068 17.9452 47.068C4.64627 47.068 0 38.2798 0 30.1336C0 21.1532 5.9942 13.1306 17.8805 13.1306C30.3489 13.1306 35.4649 21.7162 35.4649 30.1782C35.4649 31.0296 35.4649 31.6372 35.407 32.7254H10.6098V32.722ZM24.6678 26.2167C24.4772 23.951 23.262 20.5902 17.8771 20.5902C12.4922 20.5902 10.9979 23.34 10.7324 26.2167H24.6678Z" fill="#7B57FC"/>
<path d="M74.4119 0V37.1814C74.4119 40.1646 74.4119 43.2129 74.4731 46.1995H63.9348C63.8088 45.3036 63.7476 43.8446 63.6897 42.6431C61.9163 45.0804 59.731 47.0681 53.216 47.0681C44.3932 47.0681 37.7148 40.4701 37.7148 30.3774C37.7148 19.4781 46.3436 13.1273 54.1861 13.1273C60.2416 13.1273 62.7673 15.0772 63.6897 16.2203V0H74.4153H74.4119ZM48.6787 30.1337C48.6787 35.0942 51.4937 38.7056 56.4156 38.7056C61.3376 38.7056 63.9314 35.4409 63.9314 30.12C63.9314 24.799 61.8176 21.428 56.4259 21.428C51.0341 21.428 48.6753 25.5749 48.6753 30.1337H48.6787Z" fill="#7B57FC"/>
<path d="M79.1807 22.1247C79.1807 19.3956 79.1807 16.2992 79.1194 13.9991H89.542C89.6646 14.8814 89.7871 16.7317 89.845 17.9092C91.3155 15.8014 94.1747 13.1306 100.308 13.1306C108.219 13.1306 112.848 18.0774 112.848 26.3025V46.1994H102.065V28.0018C102.065 24.538 100.731 21.4313 96.3906 21.4313C92.0507 21.4313 89.9063 24.4728 89.9063 30.0478V46.196H79.1807V22.1213V22.1247Z" fill="#7B57FC"/>
<path d="M137.39 14.9365V14.9468H119.22V25.1527H137.39V25.3278C137.39 25.3278 137.38 25.3278 137.377 25.3278C125.98 25.3278 116.746 34.6446 116.746 46.1344H127.23C127.23 40.4805 131.774 35.8976 137.38 35.8976C137.383 35.8976 137.39 35.8976 137.394 35.8976V46.1962H147.513V14.9365H137.394H137.39Z" fill="#7B57FC"/>
</svg>
